STARTFONT 2.1
FONT -FontForge-Arial CE-Thin-R-Normal--48-460-75-75-P-259-ISO10646-1
SIZE 46 75 75
FONTBOUNDINGBOX 72 47 -26 -10
COMMENT "Generated by fontforge, http://fontforge.sourceforge.net"
COMMENT "Arial is a trademark and is (C) Copyright of The Monotype Corporation plc 1990"
STARTPROPERTIES 40
FOUNDRY "FontForge"
FAMILY_NAME "Arial CE"
WEIGHT_NAME "Thin"
SLANT "R"
SETWIDTH_NAME "Normal"
ADD_STYLE_NAME ""
PIXEL_SIZE 48
POINT_SIZE 460
RESOLUTION_X 75
RESOLUTION_Y 75
SPACING "P"
AVERAGE_WIDTH 259
CHARSET_REGISTRY "ISO10646"
CHARSET_ENCODING "1"
FONTNAME_REGISTRY ""
CHARSET_COLLECTIONS "ISO10646-1"
FONT_NAME "Arial-BoldMT"
FACE_NAME "Arial CE Bold"
COPYRIGHT "Arial is a trademark and is (C) Copyright of The Monotype Corporation plc 1990"
FONT_VERSION "MS core font :V1.00"
FONT_ASCENT 38
FONT_DESCENT 10
UNDERLINE_POSITION -8
UNDERLINE_THICKNESS 6
X_HEIGHT 25
CAP_HEIGHT 34
RAW_ASCENT 799
RAW_DESCENT 200
NORM_SPACE 13
RELATIVE_WEIGHT 0
RELATIVE_SETWIDTH 50
SUPERSCRIPT_X 0
SUPERSCRIPT_Y 22
SUPERSCRIPT_SIZE 31
SUBSCRIPT_X 0
SUBSCRIPT_Y 6
SUBSCRIPT_SIZE 31
FIGURE_WIDTH 27
AVG_LOWERCASE_WIDTH 240
AVG_UPPERCASE_WIDTH 316
ENDPROPERTIES
CHARS 98
STARTCHAR space
ENCODING 32
SWIDTH 277 0
DWIDTH 13 0
BBX 1 1 0 0
BITMAP
00
ENDCHAR
STARTCHAR exclam
ENCODING 33
SWIDTH 333 0
DWIDTH 15 0
BBX 7 35 4 0
BITMAP
FE
FE
FE
FE
FE
FE
FE
FE
FE
FE
FE
FE
FE
FE
7C
7C
7C
7C
7C
7C
7C
7C
7C
7C
38
38
00
00
FE
FE
FE
FE
FE
FE
FE
ENDCHAR
STARTCHAR quotedbl
ENCODING 34
SWIDTH 474 0
DWIDTH 23 0
BBX 18 12 2 23
BITMAP
FE1FC0
FE1FC0
FE1FC0
FE1FC0
FE1FC0
FE1FC0
FE1FC0
FE1FC0
7E0FC0
7C0F80
7C0F80
7C0F80
ENDCHAR
STARTCHAR numbersign
ENCODING 35
SWIDTH 556 0
DWIDTH 27 0
BBX 26 35 0 0
BITMAP
007C0F80
007C0F80
00F81F00
00F81F00
00F81F00
00F81F00
01F83F00
01F03E00
01F03E00
FFFFFFC0
FFFFFFC0
FFFFFFC0
FFFFFFC0
FFFFFFC0
03E07C00
07E0FC00
07C0F800
07C0F800
07C0F800
0FC1F800
0F81F000
FFFFFFC0
FFFFFFC0
FFFFFFC0
FFFFFFC0
FFFFFFC0
1F03E000
1F03E000
3F07E000
3E07C000
3E07C000
3E07C000
3E07C000
7C0F8000
7C0F8000
ENDCHAR
STARTCHAR dollar
ENCODING 36
SWIDTH 556 0
DWIDTH 27 0
BBX 23 42 2 -5
BITMAP
007800
007800
00FE00
07FF80
0FFFE0
1FFFF0
3FFFF0
7FFFF8
7F7BF8
7E79F8
7E78F0
7C7800
7E7800
7E7800
7F7800
7FF800
3FF800
3FFF00
1FFFC0
0FFFE0
03FFF8
00FFF8
007FFC
007BFC
0078FC
0078FC
00787E
FC787E
FC787C
FE78FC
FF78FC
7FF9FC
7FFFF8
3FFFF0
1FFFE0
0FFFC0
03FF00
007800
007800
007800
007800
007800
ENDCHAR
STARTCHAR percent
ENCODING 37
SWIDTH 889 0
DWIDTH 43 0
BBX 38 36 2 -1
BITMAP
07E0003E00
1FF0007C00
3FF8007C00
7FFC00F800
7C7E00F800
FC3E01F000
F83E01F000
F83E03E000
F83E03E000
F83E07C000
F83E07C000
F83E0F8000
FC3E0F8000
7C7E1F0000
7FFC1F0000
3FFC3E0000
1FF83E0000
0FE07C0000
00007C0780
0000F83FE0
0000F87FF0
0001F07FF8
0001F0F8FC
0003E0F87C
0003E1F87C
0007C1F07C
0007C1F07C
000F81F07C
000F81F07C
001F01F07C
001F00F87C
003E00F87C
003E00FDF8
007C007FF8
007C003FF0
00F8001FE0
ENDCHAR
STARTCHAR ampersand
ENCODING 38
SWIDTH 722 0
DWIDTH 35 0
BBX 31 36 2 -1
BITMAP
003F8000
00FFF000
01FFF800
03FFFC00
07FFFE00
07F07E00
0FE07E00
0FE03E00
0FE03E00
07F07E00
07F8FE00
07F9FC00
03FFFC00
01FFF800
00FFF000
01FFC000
07FFC000
0FFFC000
1FFFE100
3FEFF1F0
7F8FF9F8
7F07FBF8
7F03FFF8
FE01FFF0
FE00FFF0
FE00FFE0
FE007FE0
FE003FE0
7F007FF0
7F81FFFC
7FFFFFFE
3FFFFFFE
1FFFFDFE
0FFFF0FC
03FFC078
001E0010
ENDCHAR
STARTCHAR quotesingle
ENCODING 39
SWIDTH 237 0
DWIDTH 11 0
BBX 7 12 2 23
BITMAP
FE
FE
FE
FE
FE
FE
FE
FE
7E
7C
7C
7C
ENDCHAR
STARTCHAR parenleft
ENCODING 40
SWIDTH 333 0
DWIDTH 16 0
BBX 11 45 3 -10
BITMAP
01E0
03E0
07C0
07C0
0FC0
0F80
1F80
1F00
3F00
3F00
3E00
7E00
7E00
7E00
FE00
FC00
FC00
FC00
FC00
FC00
FC00
FC00
FC00
FC00
FC00
FC00
FC00
FC00
FC00
FC00
FE00
7E00
7E00
7E00
3E00
3F00
3F00
1F00
1F80
0F80
0F80
07C0
07C0
03E0
03E0
ENDCHAR
STARTCHAR parenright
ENCODING 41
SWIDTH 333 0
DWIDTH 16 0
BBX 11 45 2 -10
BITMAP
F000
F800
7C00
7C00
7E00
3E00
3F00
1F00
1F80
1F80
0F80
0FC0
0FC0
0FC0
0FE0
07E0
07E0
07E0
07E0
07E0
07E0
07E0
07E0
07E0
07E0
07E0
07E0
07E0
07E0
07E0
0FC0
0FC0
0FC0
0FC0
0F80
1F80
1F80
1F00
3F00
3E00
3E00
7C00
7C00
F800
F800
ENDCHAR
STARTCHAR asterisk
ENCODING 42
SWIDTH 389 0
DWIDTH 62 0
BBX 59 12 -16 25
BITMAP
00000001C0000000
0000018FC0000000
07FFFFFFE0000000
007FFFFFE0000000
0001FFFFE0000000
000003FA00000000
000003E780000000
000003C3E0000000
0003FC23F8000000
1FFC0013FC000000
E000000003FFFFE0
00000000003FC000
ENDCHAR
STARTCHAR plus
ENCODING 43
SWIDTH 583 0
DWIDTH 28 0
BBX 24 24 2 5
BITMAP
007E00
007E00
007E00
007E00
007E00
007E00
007E00
007E00
007E00
FFFFFF
FFFFFF
FFFFFF
FFFFFF
FFFFFF
FFFFFF
007E00
007E00
007E00
007E00
007E00
007E00
007E00
007E00
007E00
ENDCHAR
STARTCHAR comma
ENCODING 44
SWIDTH 277 0
DWIDTH 14 0
BBX 8 15 2 -8
BITMAP
7F
7F
7F
7F
7F
7F
7F
07
07
0F
1E
3E
FC
78
60
ENDCHAR
STARTCHAR hyphen
ENCODING 45
SWIDTH 333 0
DWIDTH 16 0
BBX 13 6 2 9
BITMAP
FFF8
FFF8
FFF8
FFF8
FFF8
FFF8
ENDCHAR
STARTCHAR period
ENCODING 46
SWIDTH 277 0
DWIDTH 14 0
BBX 7 7 3 0
BITMAP
FE
FE
FE
FE
FE
FE
FE
ENDCHAR
STARTCHAR slash
ENCODING 47
SWIDTH 277 0
DWIDTH 13 0
BBX 13 35 0 0
BITMAP
00F8
00F8
01F0
01F0
01F0
01F0
03F0
03E0
03E0
03E0
07E0
07C0
07C0
07C0
07C0
0F80
0F80
0F80
0F80
1F80
1F00
1F00
1F00
1F00
3E00
3E00
3E00
3E00
7E00
7C00
7C00
7C00
FC00
F800
F800
ENDCHAR
STARTCHAR zero
ENCODING 48
SWIDTH 556 0
DWIDTH 27 0
BBX 22 35 2 -1
BITMAP
03FF00
07FF80
0FFFC0
1FFFE0
3FFFF0
3F87F0
3F03F8
7F03F8
7F01F8
7E01FC
FE01FC
FE01FC
FE01FC
FE01FC
FE01FC
FE01FC
FE01FC
FE01FC
FE01FC
FE01FC
FE01FC
FE01FC
FE01FC
FE01FC
7E01FC
7F01F8
7F03F8
7F03F8
3F87F0
3FFFF0
1FFFE0
0FFFE0
07FFC0
03FF00
007000
ENDCHAR
STARTCHAR one
ENCODING 49
SWIDTH 556 0
DWIDTH 27 0
BBX 16 35 4 0
BITMAP
003F
003F
007F
00FF
01FF
03FF
07FF
1FFF
7FFF
FFFF
FF7F
FE7F
FC7F
F07F
C07F
007F
007F
007F
007F
007F
007F
007F
007F
007F
007F
007F
007F
007F
007F
007F
007F
007F
007F
007F
007F
ENDCHAR
STARTCHAR two
ENCODING 50
SWIDTH 556 0
DWIDTH 27 0
BBX 23 34 1 0
BITMAP
01FFC0
07FFE0
0FFFF8
1FFFF8
3FFFFC
3FC1FE
3F80FE
7F00FE
7F007E
7F007E
00007E
0000FE
0000FE
0001FC
0003FC
0003F8
0007F8
000FF0
001FE0
007FC0
00FF80
01FF00
03FE00
07FC00
07F800
0FF000
1FE000
3FC000
3FFFFE
7FFFFE
7FFFFE
7FFFFE
FFFFFE
FFFFFE
ENDCHAR
STARTCHAR three
ENCODING 51
SWIDTH 556 0
DWIDTH 27 0
BBX 22 28 3 3
BITMAP
07F800
1FFF80
3FFFC0
7FFFE0
FEFFF0
FC7FF0
FC7FF0
FC7FF0
007FF0
007FE0
003FC0
00FF80
00FF00
01FFE0
01FFF0
01FFF8
0007F8
0003FC
0003FC
0001FC
0001FC
3C01FC
FC03F8
FC03F8
7E07F0
3F0FE0
1FFFC0
07FF00
ENDCHAR
STARTCHAR four
ENCODING 52
SWIDTH 556 0
DWIDTH 27 0
BBX 25 35 1 0
BITMAP
0001F800
0003F800
0007F800
000FF800
000FF800
001FF800
003FF800
003FF800
007FF800
00FFF800
01FBF800
01FBF800
03F3F800
07E3F800
07E3F800
0FC3F800
1F83F800
3F03F800
3F03F800
7E03F800
FC03F800
FFFFFF80
FFFFFF80
FFFFFF80
FFFFFF80
FFFFFF80
FFFFFF80
FFFFFF80
0003F800
0003F800
0003F800
0003F800
0003F800
0003F800
0003F800
ENDCHAR
STARTCHAR five
ENCODING 53
SWIDTH 556 0
DWIDTH 27 0
BBX 22 32 3 5
BITMAP
1FFFF8
1FFFF8
1FFFF8
3FFFF8
3FFFF8
3FFFF8
3FFFF0
3FFF00
3FFFE0
7FFFC0
7FFFE0
7FFFF0
7FFFF0
7FFFF8
FFFFF8
FFFFFC
FF1FFC
FE07FC
1803FC
0001FC
0001FC
0001FC
0001FC
0001FC
0001F8
0001F8
7C01F0
FC01F0
3E03E0
1F03C0
078F00
00FC00
ENDCHAR
STARTCHAR six
ENCODING 54
SWIDTH 556 0
DWIDTH 27 0
BBX 23 35 2 -1
BITMAP
00FF80
03FFE0
07FFF0
0FFFF8
1FFFF8
3FC3FC
3F81FC
7F00FC
7F00C0
7F0000
7E0000
FE0000
FE3F80
FEFFE0
FFFFF0
FFFFF8
FFFFF8
FF81FC
FF00FC
FF00FE
FF00FE
FE00FE
FE007E
7E007E
7F00FE
7F00FE
7F00FE
3F81FC
3FC3FC
1FFFF8
1FFFF8
0FFFF0
07FFE0
01FF80
001C00
ENDCHAR
STARTCHAR seven
ENCODING 55
SWIDTH 556 0
DWIDTH 27 0
BBX 23 35 2 0
BITMAP
FFFFFE
FFFFFE
FFFFFE
FFFFFE
FFFFFE
FFFFFC
FFFFFC
0001F8
0003F0
0007E0
000FE0
000FC0
001F80
001F80
003F00
007F00
007E00
00FE00
00FE00
01FC00
01FC00
01F800
03F800
03F800
03F800
07F000
07F000
07F000
07F000
07E000
0FE000
0FE000
0FE000
0FE000
0FE000
ENDCHAR
STARTCHAR eight
ENCODING 56
SWIDTH 556 0
DWIDTH 27 0
BBX 23 35 2 -1
BITMAP
03FF00
0FFFC0
1FFFE0
3FFFF0
3FFFF8
7F83F8
7F01F8
7E01F8
7E01F8
7E01F8
7E01F8
7F03F8
3F87F0
1FFFE0
0FFFC0
03FF80
0FFFE0
1FFFF0
3FCFF8
7F03F8
7E01FC
FE00FC
FE00FC
FC00FE
FC00FE
FE00FC
FE00FC
FF01FC
7F83FC
7FFFF8
3FFFF0
1FFFF0
0FFFC0
03FF80
003C00
ENDCHAR
STARTCHAR nine
ENCODING 57
SWIDTH 556 0
DWIDTH 27 0
BBX 22 35 2 -1
BITMAP
03FE00
0FFF80
1FFFC0
3FFFE0
7FFFF0
7F0FF0
FE07F8
FE03F8
FC01FC
FC01FC
FC01FC
FC01FC
FC01FC
FC01FC
FE01FC
FE03FC
7F07FC
7FDFFC
3FFFFC
1FFFFC
0FFEFC
07F9FC
0001FC
0001FC
0001FC
0601F8
FE03F8
FE03F8
7F07F0
7FFFF0
3FFFE0
3FFFC0
1FFF80
07FE00
00E000
ENDCHAR
STARTCHAR colon
ENCODING 58
SWIDTH 333 0
DWIDTH 16 0
BBX 7 26 4 0
BITMAP
FE
FE
FE
FE
FE
FE
FE
00
00
00
00
00
00
00
00
00
00
00
00
FE
FE
FE
FE
FE
FE
FE
ENDCHAR
STARTCHAR semicolon
ENCODING 59
SWIDTH 333 0
DWIDTH 16 0
BBX 8 34 3 -8
BITMAP
7F
7F
7F
7F
7F
7F
7F
00
00
00
00
00
00
00
00
00
00
00
00
7F
7F
7F
7F
7F
7F
7F
07
07
0F
1E
3E
FC
78
60
ENDCHAR
STARTCHAR less
ENCODING 60
SWIDTH 583 0
DWIDTH 28 0
BBX 23 26 2 4
BITMAP
000002
00000E
00007E
0001FE
0007FE
001FFE
00FFFC
03FFE0
0FFF80
7FFC00
FFF000
FF8000
FC0000
FE0000
FFC000
FFF000
3FFC00
0FFF80
03FFE0
00FFFC
001FFE
0007FE
0001FE
00007E
00000E
000002
ENDCHAR
STARTCHAR equal
ENCODING 61
SWIDTH 583 0
DWIDTH 28 0
BBX 24 16 2 10
BITMAP
FFFFFF
FFFFFF
FFFFFF
FFFFFF
FFFFFF
FFFFFF
000000
000000
000000
000000
FFFFFF
FFFFFF
FFFFFF
FFFFFF
FFFFFF
FFFFFF
ENDCHAR
STARTCHAR greater
ENCODING 62
SWIDTH 583 0
DWIDTH 28 0
BBX 23 26 2 4
BITMAP
800000
E00000
FC0000
FF0000
FFC000
FFF000
7FFE00
0FFF80
03FFE0
007FFC
001FFE
0003FE
0000FE
0000FE
0003FE
001FFE
007FF8
03FFE0
0FFF80
7FFE00
FFF000
FFC000
FF0000
FC0000
E00000
800000
ENDCHAR
STARTCHAR question
ENCODING 63
SWIDTH 610 0
DWIDTH 29 0
BBX 24 35 3 0
BITMAP
007E00
03FFC0
0FFFF0
1FFFF8
3FFFFC
7FE7FE
FF00FE
FE007F
FC007F
FC003F
7C003F
00007F
00007F
0000FE
0001FE
0007FC
000FF8
001FF0
003FE0
003FC0
007F80
007F00
007E00
007E00
007E00
007E00
000000
000000
007E00
007E00
007E00
007E00
007E00
007E00
007E00
ENDCHAR
STARTCHAR at
ENCODING 64
SWIDTH 975 0
DWIDTH 47 0
BBX 45 45 1 -10
BITMAP
00001FF80000
0001FFFF8000
0007FFFFE000
001FFFFFF800
007FFC1FFC00
00FF8001FE00
01FC00003F00
03F800001F80
07E000000FC0
07C0000007C0
0F803FC7E3E0
1F80FFEFE1E0
1F01FFFFC1F0
3E03FFFFC1F0
3E07F07FC0F0
3C0FE03FC0F0
7C1FC03FC0F0
7C1F801F80F0
781F801F80F0
783F001F80F0
783F001F80F0
F83F001F80F0
F87F003F01F0
F87E003F01F0
F87E003F03E0
F87E007F03E0
787E007E07C0
787F00FE0FC0
783F00FE1F80
7C3F81FE3F00
7C3FCFFFFE00
3C1FFFFFFC00
3E0FFF7FF800
1F07FE7FE000
1F01F83F8000
0F80000000F8
0FC0000001F8
07F0000007F0
03F800000FE0
01FF00007FC0
00FFF80FFF80
003FFFFFFE00
000FFFFFF800
0003FFFFE000
00003FFE0000
ENDCHAR
STARTCHAR A
ENCODING 65
SWIDTH 722 0
DWIDTH 33 0
BBX 33 35 0 0
BITMAP
000FF80000
001FF80000
001FFC0000
001FFC0000
003FFE0000
003FFE0000
003F7E0000
007F7F0000
007F7F0000
007E3F0000
00FE3F8000
00FE3F8000
00FC1F8000
01FC1FC000
01FC1FC000
01FC1FC000
03F80FE000
03F80FE000
03F80FE000
07F007F000
07F007F000
07FFFFF000
0FFFFFF800
0FFFFFF800
0FFFFFF800
1FFFFFFC00
1FFFFFFC00
1FC001FC00
3F8000FE00
3F8000FE00
3F8000FE00
7F80007F00
7F00007F00
FF00007F00
FF00007F80
ENDCHAR
STARTCHAR B
ENCODING 66
SWIDTH 722 0
DWIDTH 35 0
BBX 28 34 4 0
BITMAP
FFFFF800
FFFFFE00
FFFFFF00
FFFFFF80
FFFFFFC0
FC00FFC0
FC001FC0
FC000FE0
FC000FE0
FC000FE0
FC000FC0
FC001FC0
FC003F80
FFFFFF80
FFFFFF00
FFFFFC00
FFFFFF00
FFFFFF80
FFFFFFC0
FC003FE0
FC000FF0
FC0007F0
FC0007F0
FC0007F0
FC0007F0
FC0007F0
FC000FF0
FC001FF0
FFFFFFE0
FFFFFFE0
FFFFFFC0
FFFFFF80
FFFFFF00
FFFFF800
ENDCHAR
STARTCHAR C
ENCODING 67
SWIDTH 722 0
DWIDTH 35 0
BBX 30 36 2 -1
BITMAP
000FF800
007FFE00
01FFFF80
03FFFFC0
07FFFFE0
0FFFFFF0
1FF81FF8
1FE007F8
3FC003FC
3F8003FC
7F8001F0
7F000100
7F000000
7F000000
FF000000
FF000000
FE000000
FE000000
FE000000
FE000000
FF000000
FF000000
7F000100
7F0001E0
7F0001FC
7F8003FC
3F8003FC
3FC007F8
1FF00FF8
1FFC7FF0
0FFFFFE0
07FFFFE0
03FFFF80
00FFFF00
003FFC00
00018000
ENDCHAR
STARTCHAR D
ENCODING 68
SWIDTH 722 0
DWIDTH 35 0
BBX 29 34 3 0
BITMAP
FFFFF000
FFFFFE00
FFFFFF00
FFFFFF80
FFFFFFC0
FE1FFFC0
FE003FE0
FE001FF0
FE000FF0
FE0007F0
FE0007F8
FE0003F8
FE0003F8
FE0003F8
FE0003F8
FE0003F8
FE0003F8
FE0003F8
FE0003F8
FE0003F8
FE0003F8
FE0003F8
FE0003F8
FE0007F8
FE0007F0
FE000FF0
FE000FE0
FE003FE0
FFFFFFC0
FFFFFF80
FFFFFF80
FFFFFE00
FFFFFC00
FFFFE000
ENDCHAR
STARTCHAR E
ENCODING 69
SWIDTH 666 0
DWIDTH 32 0
BBX 26 35 4 0
BITMAP
FFFFFF80
FFFFFF80
FFFFFF80
FFFFFF80
FFFFFF80
FFFFFF80
FE000000
FE000000
FE000000
FE000000
FE000000
FE000000
FE000000
FE000000
FFFFFF00
FFFFFF00
FFFFFF00
FFFFFF00
FFFFFF00
FFFFFF00
FE000000
FE000000
FE000000
FE000000
FE000000
FE000000
FE000000
FE000000
FE000000
FFFFFFC0
FFFFFFC0
FFFFFFC0
FFFFFFC0
FFFFFFC0
FFFFFFC0
ENDCHAR
STARTCHAR F
ENCODING 70
SWIDTH 610 0
DWIDTH 29 0
BBX 23 35 4 0
BITMAP
FFFFFE
FFFFFE
FFFFFE
FFFFFE
FFFFFE
FFFFFE
FE0000
FE0000
FE0000
FE0000
FE0000
FE0000
FE0000
FE0000
FFFFF8
FFFFF8
FFFFF8
FFFFF8
FFFFF8
FFFFF8
FE0000
FE0000
FE0000
FE0000
FE0000
FE0000
FE0000
FE0000
FE0000
FE0000
FE0000
FE0000
FE0000
FE0000
FE0000
ENDCHAR
STARTCHAR G
ENCODING 71
SWIDTH 777 0
DWIDTH 0 0
BBX 32 36 2 -1
BITMAP
001FFF00
007FFFC0
01FFFFF0
03FFFFF8
07FFFFFC
0FFE07FE
0FF800FF
1FE0007E
3FC00000
3FC00000
3F800000
7F800000
7F800000
7F800000
7F000000
7F000000
FF000000
FF003FFF
7F003FFF
7F003FFF
7F003FFF
7F003FFF
7F003FFF
7F80003F
3F80003F
3F80003F
3F80003F
1FC0003F
1FC0003F
0FE0003F
07F0007F
03F800FF
01FE07FF
00FFFFFC
003FFFF0
0007FE00
ENDCHAR
STARTCHAR H
ENCODING 72
SWIDTH 722 0
DWIDTH 35 0
BBX 27 35 4 0
BITMAP
FE000FE0
FE000FE0
FE000FE0
FE000FE0
FE000FE0
FE000FE0
FE000FE0
FE000FE0
FE000FE0
FE000FE0
FE000FE0
FE000FE0
FE000FE0
FE000FE0
FFFFFFE0
FFFFFFE0
FFFFFFE0
FFFFFFE0
FFFFFFE0
FFFFFFE0
FE000FE0
FE000FE0
FE000FE0
FE000FE0
FE000FE0
FE000FE0
FE000FE0
FE000FE0
FE000FE0
FE000FE0
FE000FE0
FE000FE0
FE000FE0
FE000FE0
FE000FE0
ENDCHAR
STARTCHAR I
ENCODING 73
SWIDTH 277 0
DWIDTH 13 0
BBX 7 35 3 0
BITMAP
FE
FE
FE
FE
FE
FE
FE
FE
FE
FE
FE
FE
FE
FE
FE
FE
FE
FE
FE
FE
FE
FE
FE
FE
FE
FE
FE
FE
FE
FE
FE
FE
FE
FE
FE
ENDCHAR
STARTCHAR J
ENCODING 74
SWIDTH 556 0
DWIDTH 27 0
BBX 23 36 0 -1
BITMAP
FFFFFE
FFFFFE
FFFFFE
FFFFFE
FFFFFE
FFFFFE
FFFFFE
FFFFFE
FFFFFE
FFFFFE
FFFFFE
FFFFFE
FFFFFE
FFFFFE
FFFFFE
FFFFFE
FFFFFE
FFFFFE
FFFFFE
FFFFFE
FFFFFE
FFFFFE
FFFFFE
FFFFFE
FFFFFE
FFFFFE
FFFFFE
FFFFFC
FFFFFC
FFFFFC
7FFFF8
3FFFF8
1FFFF0
0FFFE0
07FF80
00F800
ENDCHAR
STARTCHAR K
ENCODING 75
SWIDTH 722 0
DWIDTH 35 0
BBX 30 35 4 0
BITMAP
FE000FF8
FE001FF0
FE003FE0
FE007FC0
FE00FF80
FE01FF00
FE03FF00
FE07FE00
FE0FFC00
FE0FF800
FE1FF000
FE3FE000
FE7FC000
FEFF8000
FFFFC000
FFFFC000
FFFFE000
FFFFE000
FFFFF000
FFF7F800
FFE7F800
FFC3FC00
FF81FE00
FF01FE00
FE00FF00
FE00FF80
FE007F80
FE003FC0
FE003FC0
FE001FE0
FE000FF0
FE000FF0
FE0007F8
FE0007FC
FE0003FC
ENDCHAR
STARTCHAR L
ENCODING 76
SWIDTH 610 0
DWIDTH 29 0
BBX 24 35 4 0
BITMAP
FE0000
FE0000
FE0000
FE0000
FE0000
FE0000
FE0000
FE0000
FE0000
FE0000
FE0000
FE0000
FE0000
FE0000
FE0000
FE0000
FE0000
FE0000
FE0000
FE0000
FE0000
FE0000
FE0000
FE0000
FE0000
FE0000
FE0000
FE0000
FE0000
FFFFFF
FFFFFF
FFFFFF
FFFFFF
FFFFFF
FFFFFF
ENDCHAR
STARTCHAR M
ENCODING 77
SWIDTH 833 0
DWIDTH 41 0
BBX 33 35 4 0
BITMAP
FFC001FF80
FFC003FF80
FFE003FF80
FFE003FF80
FFE003FF80
FFE003FF80
FFF007FF80
FFF007FF80
FDF007DF80
FDF007DF80
FDF80FDF80
FCF80FDF80
FCF80F9F80
FCF80F9F80
FCFC1F9F80
FC7C1F9F80
FC7C1F1F80
FC7C1F1F80
FC7E3F1F80
FC7E3F1F80
FC3E3E1F80
FC3E3E1F80
FC3F7E1F80
FC3F7E1F80
FC1F7C1F80
FC1F7C1F80
FC1FFC1F80
FC1FFC1F80
FC0FF81F80
FC0FF81F80
FC0FF81F80
FC0FF81F80
FC07F01F80
FC07F01F80
FC07F01F80
ENDCHAR
STARTCHAR N
ENCODING 78
SWIDTH 722 0
DWIDTH 35 0
BBX 27 35 4 0
BITMAP
FE0007E0
FE0007E0
FF0007E0
FF0007E0
FF8007E0
FFC007E0
FFC007E0
FFE007E0
FFE007E0
FFF007E0
FFF807E0
FDF807E0
FDFC07E0
FCFC07E0
FCFE07E0
FC7E07E0
FC3F07E0
FC3F87E0
FC1F87E0
FC1FC7E0
FC0FC7E0
FC07E7E0
FC07F7E0
FC03F7E0
FC03FFE0
FC01FFE0
FC01FFE0
FC00FFE0
FC007FE0
FC007FE0
FC003FE0
FC003FE0
FC001FE0
FC000FE0
FC000FE0
ENDCHAR
STARTCHAR O
ENCODING 79
SWIDTH 777 0
DWIDTH 37 0
BBX 33 36 2 -1
BITMAP
000FF80000
007FFF0000
01FFFFC000
03FFFFE000
07FFFFF800
0FFFFFFC00
1FFC0FFC00
1FF003FE00
3FC001FE00
3F8000FF00
7F80007F00
7F00007F80
7F00003F80
FF00003F80
FE00003F80
FE00003F80
FE00003F80
FE00003F80
FE00003F80
FE00003F80
FE00003F80
FF00003F80
FF00003F80
7F00007F80
7F80007F80
7F8000FF00
3FC000FF00
3FE001FE00
1FF007FE00
1FFE1FFC00
0FFFFFF800
07FFFFF000
03FFFFE000
00FFFF8000
003FFE0000
0000C00000
ENDCHAR
STARTCHAR P
ENCODING 80
SWIDTH 666 0
DWIDTH 32 0
BBX 27 35 3 0
BITMAP
FFFFFF00
FFFFFFE0
FFFFFFC0
FFFFFC00
FE000000
FE000000
FFFF8000
FFFFC000
FFFFE000
FFFFF000
FDFFF000
FDFFF000
FDFFF000
FDFFF000
F9FFE000
F9FFC000
F9000000
F9000000
F1000000
F1000000
F1000000
F1000000
F1000000
E1000000
E1000000
E1000000
E1000000
C1000000
C1000000
C1000000
C1000000
81000000
81000000
81000000
81000000
ENDCHAR
STARTCHAR Q
ENCODING 81
SWIDTH 777 0
DWIDTH 37 0
BBX 35 38 2 -3
BITMAP
000FF80000
007FFF0000
01FFFFC000
03FFFFF000
07FFFFF800
0FFFFFFC00
1FFC0FFC00
3FE003FE00
3FC001FF00
3F8000FF00
7F80007F00
7F00007F80
7F00003F80
FF00003F80
FE00003F80
FE00003F80
FE00003F80
FE00003F80
FE00003F80
FE00003F80
FE00003F80
FF00003F80
FF00003F80
7F00407F80
7F00F07F80
7F80FCFF00
3FC1FEFF00
3FE0FFFE00
1FF03FFE00
1FFC3FFC00
0FFFFFF800
07FFFFFC00
03FFFFFF00
00FFFFFFE0
003FFF7FC0
0000C01FC0
0000000F80
0000000380
ENDCHAR
STARTCHAR R
ENCODING 82
SWIDTH 722 0
DWIDTH 35 0
BBX 30 34 4 0
BITMAP
FFFFFC00
FFFFFF00
FFFFFF80
FFFFFFC0
FFFFFFC0
FC07FFE0
FC001FE0
FC000FE0
FC000FF0
FC000FF0
FC000FF0
FC000FE0
FC000FE0
FC003FE0
FFFFFFC0
FFFFFF80
FFFFFF80
FFFFFE00
FFFFF000
FFFFF000
FC0FF800
FC07FC00
FC03FE00
FC01FF00
FC00FF00
FC00FF80
FC007FC0
FC003FC0
FC003FE0
FC001FF0
FC000FF0
FC000FF8
FC0007F8
FC0003FC
ENDCHAR
STARTCHAR S
ENCODING 83
SWIDTH 666 0
DWIDTH 32 0
BBX 28 36 2 -1
BITMAP
007FC000
03FFF800
07FFFE00
1FFFFF00
1FFFFF80
3FFFFF80
3FC07FC0
7F003FC0
7F001FC0
7F001FE0
7F000FC0
7F800000
7FE00000
3FFE0000
3FFFE000
1FFFF800
0FFFFE00
07FFFF80
01FFFFC0
003FFFC0
0003FFE0
00003FE0
00000FE0
1E000FF0
FE0007F0
FE0007F0
FF000FF0
7F000FE0
7F801FE0
7FF0FFE0
3FFFFFC0
1FFFFF80
0FFFFF00
07FFFE00
01FFF800
000E8000
ENDCHAR
STARTCHAR T
ENCODING 84
SWIDTH 610 0
DWIDTH 30 0
BBX 27 35 2 0
BITMAP
FFFFFFE0
FFFFFFE0
FFFFFFE0
FFFFFFE0
FFFFFFE0
FFFFFFE0
003F8000
003F8000
003F8000
003F8000
003F8000
003F8000
003F8000
003F8000
003F8000
003F8000
003F8000
003F8000
003F8000
003F8000
003F8000
003F8000
003F8000
003F8000
003F8000
003F8000
003F8000
003F8000
003F8000
003F8000
003F8000
003F8000
003F8000
003F8000
003F8000
ENDCHAR
STARTCHAR U
ENCODING 85
SWIDTH 722 0
DWIDTH 35 0
BBX 28 35 3 -1
BITMAP
FE0007F0
FE0007F0
FE0007F0
FE0007F0
FE0007F0
FE0007F0
FE0007F0
FE0007F0
FE0007F0
FE0007F0
FE0007F0
FE0007F0
FE0007F0
FE0007F0
FE0007F0
FE0007F0
FE0007F0
FE0007F0
FE0007F0
FE0007F0
FE0007F0
FE0007F0
7E0007F0
7F0007F0
7F0007F0
7F000FE0
7F800FE0
7FC01FE0
3FF8FFE0
3FFFFFC0
1FFFFF80
0FFFFF00
07FFFE00
01FFF800
00070000
ENDCHAR
STARTCHAR V
ENCODING 86
SWIDTH 666 0
DWIDTH 32 0
BBX 31 35 0 0
BITMAP
FE0000FE
FF0001FE
7F0001FC
7F0001FC
7F8003FC
3F8003F8
3F8003F8
3FC007F8
1FC007F0
1FC007F0
1FC007F0
0FE00FE0
0FE00FE0
0FE00FE0
07F01FC0
07F01FC0
07F01FC0
07F01F80
03F83F80
03F83F80
03F83F80
01FC7F00
01FC7F00
01FC7F00
00FC7E00
00FEFE00
00FEFE00
007EFC00
007FFC00
007FFC00
003FF800
003FF800
003FF800
003FF000
001FF000
ENDCHAR
STARTCHAR W
ENCODING 87
SWIDTH 943 0
DWIDTH 45 0
BBX 45 35 0 0
BITMAP
FE003FE003F8
FE003FE003F8
7F003FE007F0
7F003FE007F0
7F003FE007F0
7F007FF007F0
7F807FF00FF0
3F807FF00FE0
3F807DF00FE0
3F80FDF80FE0
3F80FDF80FE0
1FC0FDF81FE0
1FC0F8F81FC0
1FC1F8FC1FC0
1FC1F8FC1FC0
1FC1F8FC1FC0
0FE1F07C3F80
0FE3F07C3F80
0FE3F07E3F80
0FE3F07E3F80
07E3E03E3F80
07F3E03E7F00
07F7E03F7F00
07F7E03F7F00
07F7C03F7F00
03F7C01F7E00
03FFC01FFE00
03FFC01FFE00
03FF801FFE00
01FF800FFE00
01FF800FFC00
01FF800FFC00
01FF800FFC00
01FF0007FC00
00FF0007F800
ENDCHAR
STARTCHAR X
ENCODING 88
SWIDTH 666 0
DWIDTH 32 0
BBX 30 35 1 0
BITMAP
7F8007F8
7FC00FF8
3FC00FF0
1FE01FE0
1FF03FE0
0FF03FC0
07F87F80
07F87F80
03FCFF00
03FFFF00
01FFFE00
00FFFC00
00FFFC00
007FF800
003FF800
003FF000
001FE000
003FF000
003FF000
007FF800
007FF800
00FFFC00
01FFFE00
01FFFE00
03FCFF00
07FCFF80
07F87F80
0FF03FC0
0FF03FC0
1FE01FE0
3FE01FF0
3FC00FF0
7F8007F8
FF8007FC
FF0003FC
ENDCHAR
STARTCHAR Y
ENCODING 89
SWIDTH 666 0
DWIDTH 33 0
BBX 31 35 1 0
BITMAP
FF0001FE
FF0001FE
7F8003FC
3FC007F8
3FC007F8
1FE00FF0
0FE00FF0
0FF01FE0
07F01FC0
07F83FC0
03F83F80
01FC7F00
01FEFF00
00FEFE00
00FFFE00
007FFC00
003FF800
003FF800
001FF000
000FF000
000FE000
000FE000
000FE000
000FE000
000FE000
000FE000
000FE000
000FE000
000FE000
000FE000
000FE000
000FE000
000FE000
000FE000
000FE000
ENDCHAR
STARTCHAR Z
ENCODING 90
SWIDTH 610 0
DWIDTH 29 0
BBX 28 35 0 0
BITMAP
3FFFFFE0
3FFFFFE0
3FFFFFE0
3FFFFFE0
3FFFFFE0
3FFFFFE0
00003FE0
00007FC0
0000FF80
0001FF00
0001FE00
0003FE00
0007FC00
000FF800
000FF000
001FE000
003FE000
007FC000
00FF8000
00FF0000
01FE0000
03FE0000
07FC0000
0FF80000
0FF00000
1FE00000
3FE00000
7FC00000
FF800000
FFFFFFF0
FFFFFFF0
FFFFFFF0
FFFFFFF0
FFFFFFF0
FFFFFFF0
ENDCHAR
STARTCHAR bracketleft
ENCODING 91
SWIDTH 333 0
DWIDTH 16 0
BBX 12 45 3 -10
BITMAP
FFF0
FFF0
FFF0
FFF0
FFF0
FFF0
FC00
FC00
FC00
FC00
FC00
FC00
FC00
FC00
FC00
FC00
FC00
FC00
FC00
FC00
FC00
FC00
FC00
FC00
FC00
FC00
FC00
FC00
FC00
FC00
FC00
FC00
FC00
FC00
FC00
FC00
FC00
FC00
FC00
FFF0
FFF0
FFF0
FFF0
FFF0
FFF0
ENDCHAR
STARTCHAR backslash
ENCODING 92
SWIDTH 277 0
DWIDTH 13 0
BBX 12 35 0 0
BITMAP
F800
F800
FC00
7C00
7C00
7C00
7C00
3E00
3E00
3E00
3E00
3E00
1F00
1F00
1F00
1F00
1F00
0F80
0F80
0F80
0F80
0FC0
07C0
07C0
07C0
07C0
03E0
03E0
03E0
03E0
03E0
01F0
01F0
01F0
01F0
ENDCHAR
STARTCHAR bracketright
ENCODING 93
SWIDTH 333 0
DWIDTH 16 0
BBX 12 45 0 -10
BITMAP
FFF0
FFF0
FFF0
FFF0
FFF0
FFF0
03F0
03F0
03F0
03F0
03F0
03F0
03F0
03F0
03F0
03F0
03F0
03F0
03F0
03F0
03F0
03F0
03F0
03F0
03F0
03F0
03F0
03F0
03F0
03F0
03F0
03F0
03F0
03F0
03F0
03F0
03F0
03F0
03F0
FFF0
FFF0
FFF0
FFF0
FFF0
FFF0
ENDCHAR
STARTCHAR asciicircum
ENCODING 94
SWIDTH 583 0
DWIDTH 28 0
BBX 22 19 2 16
BITMAP
00FC00
00FC00
01FE00
01FE00
01FF00
03FF00
03FF80
07FF80
07FF80
0FCFC0
0FCFC0
1FCFE0
1F87E0
3F87F0
3F87F0
3F03F0
7F03F8
7F03F8
FE01FC
ENDCHAR
STARTCHAR underscore
ENCODING 95
SWIDTH 556 0
DWIDTH 27 0
BBX 28 5 -1 -10
BITMAP
FFFFFFF0
FFFFFFF0
FFFFFFF0
FFFFFFF0
FFFFFFF0
ENDCHAR
STARTCHAR grave
ENCODING 96
SWIDTH 333 0
DWIDTH 16 0
BBX 10 7 0 28
BITMAP
FE00
7F00
3F00
1F80
0F80
0780
03C0
ENDCHAR
STARTCHAR a
ENCODING 97
SWIDTH 556 0
DWIDTH 27 0
BBX 23 26 2 -1
BITMAP
07FFC0
0FFFE0
1FFFF0
3FFFF8
7FFFF8
7F03F8
FE01FC
0401FC
0001FC
0007FC
00FFFC
07FFFC
1FFFFC
7FFDFC
7F81FC
FE01FC
FC01FC
FC01FC
FC03FC
FE03FC
FF0FFC
FFFFFC
7FFEFC
3FFCFC
1FF8FE
01C000
ENDCHAR
STARTCHAR b
ENCODING 98
SWIDTH 610 0
DWIDTH 29 0
BBX 24 35 3 -1
BITMAP
FE0000
FE0000
FE0000
FE0000
FE0000
FE0000
FE0000
FE0000
FE0000
FE3FC0
FEFFF0
FFFFF8
FFFFFC
FFFFFE
FF81FE
FF00FF
FF007F
FE007F
FE007F
FE003F
FE003F
FE003F
FE003F
FE007F
FE007F
FE007F
FF007F
FF80FF
FFC1FE
FFFFFE
FFFFFC
FDFFF8
FCFFF0
FC3FE0
000200
ENDCHAR
STARTCHAR c
ENCODING 99
SWIDTH 556 0
DWIDTH 27 0
BBX 23 26 2 -1
BITMAP
01FF80
07FFE0
0FFFF0
1FFFF8
3FFFFC
7F81FC
7F00FE
7F00FE
FE0000
FE0000
FE0000
FE0000
FE0000
FE0000
FE0000
FE0000
FE007E
7F00FE
7F00FE
7FC1FE
3FFFFC
1FFFF8
0FFFF0
07FFE0
01FFC0
001C00
ENDCHAR
STARTCHAR d
ENCODING 100
SWIDTH 610 0
DWIDTH 29 0
BBX 24 35 2 -1
BITMAP
00003F
00003F
00003F
00003F
00003F
00003F
00003F
00003F
00003F
03FC3F
0FFF3F
1FFFBF
3FFFFF
3FFFFF
7F81FF
7F00FF
7F007F
FE007F
FE007F
FE003F
FE003F
FE003F
FE003F
FE003F
FE007F
FE007F
7F007F
7F00FF
7F81FF
3FFFFF
1FFFFF
1FFFBF
0FFF3F
03FE3F
002000
ENDCHAR
STARTCHAR e
ENCODING 101
SWIDTH 556 0
DWIDTH 27 0
BBX 23 26 2 -1
BITMAP
03FF00
07FFC0
1FFFE0
3FFFF0
3FFFF8
7F83F8
7F01FC
FE00FC
FE00FC
FC00FC
FFFFFE
FFFFFE
FFFFFE
FFFFFE
FC0000
FC0000
FE0000
FE00C0
FE01FC
7F01FC
7FE7F8
3FFFF8
1FFFF0
0FFFE0
03FF80
001000
ENDCHAR
STARTCHAR f
ENCODING 102
SWIDTH 333 0
DWIDTH 15 0
BBX 15 34 0 1
BITMAP
07FC
3FFE
7FFC
7FFC
FFC0
FF80
FF80
FE00
FE00
01FC
0010
0070
03F0
0FF0
7FF0
01F0
01F0
01F0
01F0
01F0
01F0
01F0
01F0
01F0
01F0
01F0
01F0
01F0
01F0
01F0
01F0
01F0
01F0
01F0
ENDCHAR
STARTCHAR g
ENCODING 103
SWIDTH 610 0
DWIDTH 29 0
BBX 24 35 2 -10
BITMAP
03FE3F
0FFF3F
1FFFBF
3FFFFF
3FFFFF
7F81FF
7F00FF
7F007F
FE007F
FE003F
FE003F
FE003F
FE003F
FE003F
FE003F
FE007F
FE007F
7F00FF
7F81FF
7FE7FF
3FFFFF
1FFFBF
0FFF3F
07FE3F
01F83F
00003F
00003F
7F007F
7F807F
7F80FE
7FFFFE
3FFFFC
1FFFF8
0FFFF0
01FFC0
ENDCHAR
STARTCHAR h
ENCODING 104
SWIDTH 610 0
DWIDTH 29 0
BBX 23 34 3 0
BITMAP
FE0000
FE0000
FE0000
FE0000
FE0000
FE0000
FE0000
FE0000
FE0000
FE3FE0
FE7FF8
FEFFF8
FFFFFC
FFFFFC
FF81FE
FF00FE
FF00FE
FE00FE
FE00FE
FE00FE
FE00FE
FE00FE
FE00FE
FE00FE
FE00FE
FE00FE
FE00FE
FE00FE
FE00FE
FE00FE
FE00FE
FE00FE
FE00FE
FE00FE
ENDCHAR
STARTCHAR i
ENCODING 105
SWIDTH 277 0
DWIDTH 13 0
BBX 7 35 3 0
BITMAP
FE
FE
FE
FE
FE
FE
00
00
00
FE
FE
FE
FE
FE
FE
FE
FE
FE
FE
FE
FE
FE
FE
FE
FE
FE
FE
FE
FE
FE
FE
FE
FE
FE
FE
ENDCHAR
STARTCHAR j
ENCODING 106
SWIDTH 277 0
DWIDTH 13 0
BBX 12 44 -2 -10
BITMAP
07F0
07F0
07F0
07F0
07F0
07F0
0000
0000
0000
07F0
07F0
07F0
07F0
07F0
07F0
07F0
07F0
07F0
07F0
07F0
07F0
07F0
07F0
07F0
07F0
07F0
07F0
07F0
07F0
07F0
07F0
07F0
07F0
07F0
07F0
07F0
07F0
0FF0
7FF0
7FE0
FFE0
FFC0
FFC0
FF00
ENDCHAR
STARTCHAR k
ENCODING 107
SWIDTH 556 0
DWIDTH 27 0
BBX 23 35 3 0
BITMAP
FE0000
FE0000
FE0000
FE0000
FE0000
FE0000
FE0000
FE0000
FE0000
FE01FE
FE03FC
FE07F8
FE0FF0
FE1FE0
FE3FC0
FE7F80
FE7F80
FEFF00
FFFE00
FFFE00
FFFE00
FFFF00
FFFF00
FFFF80
FF9FC0
FF1FC0
FE0FE0
FE0FE0
FE07F0
FE07F0
FE03F8
FE01FC
FE01FC
FE00FE
FE00FE
ENDCHAR
STARTCHAR l
ENCODING 108
SWIDTH 277 0
DWIDTH 13 0
BBX 7 35 3 0
BITMAP
FE
FE
FE
FE
FE
FE
FE
FE
FE
FE
FE
FE
FE
FE
FE
FE
FE
FE
FE
FE
FE
FE
FE
FE
FE
FE
FE
FE
FE
FE
FE
FE
FE
FE
FE
ENDCHAR
STARTCHAR m
ENCODING 109
SWIDTH 889 0
DWIDTH 43 0
BBX 37 25 3 0
BITMAP
FC3FC0FF80
FCFFE1FFC0
FDFFF3FFE0
FFFFFFFFF0
FFFFFFFFF0
FF83FF07F0
FF01FE07F0
FE01FC03F8
FE01FC03F8
FE01FC03F8
FE01FC03F8
FE01FC03F8
FE01FC03F8
FE01FC03F8
FE01FC03F8
FE01FC03F8
FE01FC03F8
FE01FC03F8
FE01FC03F8
FE01FC03F8
FE01FC03F8
FE01FC03F8
FE01FC03F8
FE01FC03F8
FE01FC03F8
ENDCHAR
STARTCHAR n
ENCODING 110
SWIDTH 610 0
DWIDTH 29 0
BBX 23 25 3 0
BITMAP
FE3FE0
FE7FF8
FEFFFC
FFFFFC
FFFFFE
FF81FE
FF00FE
FF00FE
FE00FE
FE00FE
FE00FE
FE00FE
FE00FE
FE00FE
FE00FE
FE00FE
FE00FE
FE00FE
FE00FE
FE00FE
FE00FE
FE00FE
FE00FE
FE00FE
FE00FE
ENDCHAR
STARTCHAR o
ENCODING 111
SWIDTH 610 0
DWIDTH 29 0
BBX 26 26 2 -1
BITMAP
00FFC000
03FFF000
0FFFF800
1FFFFC00
3FFFFE00
3FC1FF00
7F807F00
7F003F80
FE003F80
FE003F80
FE001F80
FE001FC0
FE001FC0
FE001FC0
FE001F80
FE003F80
FE003F80
7F003F80
7F807F00
3FC0FF00
3FFFFE00
1FFFFC00
0FFFF800
07FFF000
01FFC000
000C0000
ENDCHAR
STARTCHAR p
ENCODING 112
SWIDTH 610 0
DWIDTH 29 0
BBX 25 34 3 -9
BITMAP
FC3FC000
FCFFF000
FDFFF800
FDFFFC00
FFFFFE00
FFC1FE00
FF00FF00
FF007F00
FE007F00
FE003F00
FE003F00
FE003F80
FE003F80
FE003F80
FE003F00
FE003F00
FE007F00
FF007F00
FF80FF00
FFC1FE00
FFFFFE00
FFFFFC00
FFFFF800
FEFFF000
FE3FC000
FE020000
FE000000
FE000000
FE000000
FE000000
FE000000
FE000000
FE000000
FE000000
ENDCHAR
STARTCHAR q
ENCODING 113
SWIDTH 610 0
DWIDTH 29 0
BBX 24 34 2 -9
BITMAP
03FE3F
07FF3F
0FFFBF
1FFFFF
3FFFFF
7FC1FF
7F80FF
7F007F
FE007F
FE003F
FE003F
FE003F
FE003F
FE003F
FE003F
FE003F
7E007F
7F007F
7F00FF
7F81FF
3FFFFF
1FFFFF
1FFFBF
0FFF3F
03FE3F
00303F
00003F
00003F
00003F
00003F
00003F
00003F
00003F
00003F
ENDCHAR
STARTCHAR r
ENCODING 114
SWIDTH 389 0
DWIDTH 10 0
BBX 16 27 3 0
BITMAP
003E
FCFF
FDFF
FDFE
FFFE
FFC4
FF80
FF00
FF00
FE00
FE00
FE00
FE00
FE00
FE00
FE00
FE00
FE00
FE00
FE00
FE00
FE00
FE00
FE00
FE00
FE00
FE00
ENDCHAR
STARTCHAR s
ENCODING 115
SWIDTH 556 0
DWIDTH 27 0
BBX 23 26 1 -1
BITMAP
03FFC0
0FFFE0
1FFFF8
3FFFF8
3F87FC
7E01FC
7E00F8
7F0000
7FC000
7FFC00
3FFFC0
1FFFF0
0FFFFC
07FFFC
00FFFE
000FFE
0000FE
1E007E
FE007E
7F00FE
7FC1FE
3FFFFC
1FFFF8
0FFFF0
03FFC0
001800
ENDCHAR
STARTCHAR t
ENCODING 116
SWIDTH 333 0
DWIDTH 7 0
BBX 13 35 0 -1
BITMAP
7FF0
1FF0
1FF0
1FF0
1FF0
FE00
FE00
FE00
FE00
FE00
FE00
1E00
1E00
1E00
1E00
1E00
1E00
1E00
1E00
1E00
1E00
1E00
1E00
1E00
1E00
1E00
1E00
1E00
1F10
1FF0
1FF0
1FF0
0FF0
0FF8
03F0
ENDCHAR
STARTCHAR u
ENCODING 117
SWIDTH 610 0
DWIDTH 0 0
BBX 52 26 -26 0
BITMAP
FE000000000010
FE000000000030
FE0000003FFFC0
FE0000003FFF00
FE0000003FFC00
FE0000003FF800
FE0000003FF000
FE0000003FE000
FE0000003FC000
FE0000003F0000
FE0000003E0000
FE0000003C0000
FE000000380000
FE000000600000
FE000000400000
FE000000800000
FF000000800000
FF000003800000
FF000007800000
FF00000F000000
7F80001E000000
7FC00038000000
3FF801C0000000
3FFFFE00000000
0FFF8C00000000
03FC0800000000
ENDCHAR
STARTCHAR v
ENCODING 118
SWIDTH 556 0
DWIDTH 27 0
BBX 22 25 0 1
BITMAP
FE00FC
7F00C0
7F0080
3F0180
3F8180
3F8180
1FC100
1FC100
0FC300
0FE200
0FE200
07E200
07F600
07F400
03F400
03F400
01FC00
01F800
01F000
00F000
00F000
006000
006000
006000
002000
ENDCHAR
STARTCHAR w
ENCODING 119
SWIDTH 777 0
DWIDTH 39 0
BBX 39 26 0 0
BITMAP
FE007C00FE
FE00FE00FE
7E00FE00FC
7F00FE01FC
3F01FF01F8
3F01FF01F8
3F01FF01F8
1F81FF03F0
1F83EF83F0
1F83EF83F0
0F83EF83E0
0FC7EFC7E0
0FC7C7C7E0
07C7C7C7C0
07E7C7CFC0
07EF83EFC0
03EF83EF80
03EF83EF80
03FF01FF80
01FF01FF00
01FF01FF00
01FF01FF00
00FE00FE00
00FE00FE00
00FE00FE00
007C007C00
ENDCHAR
STARTCHAR x
ENCODING 120
SWIDTH 556 0
DWIDTH 27 0
BBX 25 26 1 0
BITMAP
FF00FF00
7F81FF00
7F81FE00
3FC3FC00
1FC3FC00
1FE7F800
0FF7F000
07FFF000
07FFE000
03FFC000
01FFC000
01FF8000
00FF0000
00FF8000
01FFC000
03FFC000
03FFE000
07FFF000
0FF7F000
0FE7F800
1FE3FC00
3FC1FC00
3FC1FE00
7F80FF00
FF80FF00
FF007F80
ENDCHAR
STARTCHAR y
ENCODING 121
SWIDTH 556 0
DWIDTH 27 0
BBX 26 35 0 -10
BITMAP
FE001FC0
7F001F80
7F003F80
3F003F80
3F803F00
3F807F00
1FC07F00
1FC07E00
0FC0FE00
0FE0FC00
0FE0FC00
07E1FC00
07F1F800
07F1F800
03F3F800
03FBF000
01FBF000
01FFF000
01FFE000
00FFE000
00FFC000
00FFC000
007FC000
007F8000
003F8000
003F8000
007F0000
007F0000
00FF0000
01FE0000
3FFE0000
3FFC0000
3FF80000
3FF00000
3FC00000
ENDCHAR
STARTCHAR z
ENCODING 122
SWIDTH 500 0
DWIDTH 24 0
BBX 22 26 1 0
BITMAP
7FFFF8
7FFFF8
7FFFF8
7FFFF8
7FFFF8
0007F8
000FF0
001FE0
003FC0
007F80
00FF80
00FF00
01FE00
03FC00
07F800
0FF800
0FF000
1FE000
3FC000
7F8000
FF0000
FFFFFC
FFFFFC
FFFFFC
FFFFFC
FFFFFC
ENDCHAR
STARTCHAR braceleft
ENCODING 123
SWIDTH 389 0
DWIDTH 19 0
BBX 16 45 1 -10
BITMAP
001F
00FF
01FF
01FF
03FF
03FF
03F0
03F0
03F0
03F0
03F0
03F0
03F0
07F0
07E0
07E0
07E0
07E0
0FE0
3FC0
FFC0
FF80
FE00
FF80
FFC0
7FC0
0FE0
07E0
07E0
07E0
07E0
07E0
03F0
03F0
03F0
03F0
03F0
03F0
03F0
03FF
03FF
03FF
01FF
00FF
003F
ENDCHAR
STARTCHAR bar
ENCODING 124
SWIDTH 279 0
DWIDTH 14 0
BBX 6 45 4 -10
BITMAP
FC
FC
FC
FC
FC
FC
FC
FC
FC
FC
FC
FC
FC
FC
FC
FC
FC
FC
FC
FC
FC
FC
FC
FC
FC
FC
FC
FC
FC
FC
FC
FC
FC
FC
FC
FC
FC
FC
FC
FC
FC
FC
FC
FC
FC
ENDCHAR
STARTCHAR braceright
ENCODING 125
SWIDTH 389 0
DWIDTH 19 0
BBX 16 45 1 -10
BITMAP
FC00
FF00
FF80
FFC0
FFC0
FFE0
0FE0
07E0
07E0
07E0
07E0
07E0
07E0
07E0
07E0
07E0
07E0
07F0
03F8
03FC
01FF
00FF
007F
00FF
01FF
03FE
03F8
07F0
07E0
07E0
07E0
07E0
07E0
07E0
07E0
07E0
07E0
07E0
0FE0
FFE0
FFC0
FFC0
FF80
FF00
FC00
ENDCHAR
STARTCHAR asciitilde
ENCODING 126
SWIDTH 583 0
DWIDTH 28 0
BBX 26 11 2 11
BITMAP
0FC00000
1FF80040
7FFE01C0
FFFF87C0
FFFFFFC0
FFFFFFC0
FFFFFF80
F9FFFF00
C01FFE00
8003FC00
00002000
ENDCHAR
STARTCHAR degree
ENCODING 176
SWIDTH 399 0
DWIDTH 19 0
BBX 15 15 2 20
BITMAP
07C0
1FF0
3FF8
7FFC
7C7C
F83E
F01E
F01E
F01E
F03E
787C
7FFC
3FF8
1FF0
07C0
ENDCHAR
STARTCHAR plusminus
ENCODING 177
SWIDTH 548 0
DWIDTH 26 0
BBX 24 32 1 0
BITMAP
007E00
007E00
007E00
007E00
007E00
007E00
007E00
007E00
007E00
FFFFFF
FFFFFF
FFFFFF
FFFFFF
FFFFFF
FFFFFF
007E00
007E00
007E00
007E00
007E00
007E00
007E00
007E00
007E00
000000
000000
FFFFFF
FFFFFF
FFFFFF
FFFFFF
FFFFFF
FFFFFF
ENDCHAR
STARTCHAR periodcentered
ENCODING 183
SWIDTH 333 0
DWIDTH 16 0
BBX 7 7 11 13
BITMAP
FE
FE
FE
FE
FE
FE
FE
ENDCHAR
ENDFONT
